<svg xmlns="http://www.w3.org/2000/svg" width="13" height="16"><path fill-rule="evenodd" fill="#FFF" d="M12.219 13.988c.18.438.127.952.491 1.359-.915.408-1.373.651-1.867.651H2.121c-.493 0-.952-.243-1.227-.65a1.461 1.461 0 0 1-.143-1.376L3.81 5.697v-2.44c-.579.303-.994-.747-.994-1.388V1.47C2.816.659 3.479 0 4.295 0h4.374c.816 0 1.48.659 1.48 1.47v.399c0 .641-.416 1.711-.995 1.389v2.439l3.065 8.291Zm-4.86.29a.87.87 0 0 0 .871-.867.869.869 0 0 0-.871-.865.867.867 0 0 0-.871.865c0 .478.388.867.871.867Zm.513-3.63c0-.344-.281-.418-.626-.418-.348 0-.629.074-.629.418a.627.627 0 0 0 1.255 0Zm-3.26 1.962a.502.502 0 1 0 0-1.003.502.502 0 1 0 0 1.003ZM9.17 1.869V1.47a.5.5 0 0 0-.501-.497H4.295c-.105 0-.501.223-.501.497v.399c0 .274.396.497.501.497h.489l.005.486V5.87L3.647 8.958h.045s4.67-.077 5.408-.736c.02-.012.13-.02.24-.03L8.176 5.87V2.366h.489a.5.5 0 0 0 .505-.497ZM6.142 7.744c-.377 0-.682-.304-.682-.094 0-.957.305-1.262.682-1.262.375 0 .68.305.68 1.262 0-.21-.305.094-.68.094Z"/></svg>