<svg xmlns="http://www.w3.org/2000/svg" width="17" height="16"><path fill-rule="evenodd" fill="#FFF" d="M13.58 12.599a.157.157 0 0 1-.077.101.16.16 0 0 1-.127.015l-5.823-1.76a.16.16 0 0 1-.108-.107.16.16 0 0 1 .032-.149l5.797-6.803-7.548 6.397a.161.161 0 0 1-.156.033L.608 8.761a.16.16 0 0 1-.024-.295L16.262.516a.16.16 0 0 1 .23.181L13.58 12.599Zm-5.932-.396 1.609.491a.16.16 0 0 1 .089.238l-1.609 2.522a.164.164 0 0 1-.182.068.161.161 0 0 1-.117-.154v-3.012a.16.16 0 0 1 .066-.129.158.158 0 0 1 .144-.024Z"/></svg>