<svg xmlns="http://www.w3.org/2000/svg" width="16" height="16"><path fill-rule="evenodd" fill="#FFF" d="M14.663 4H8.987l2.239-2.688c.036.007.066.021.104.021.368 0 .666.007.666-.668 0-.366-.298-.565-.666-.565-.367 0-.667.199-.667.565 0 .081.02.155.046.226L8.119 4h-.244L5.286.891a.65.65 0 0 0 .045-.226C5.331.299 5.33.1 4.664.1c-.367 0-.666.199-.666.565 0 .675.299.668.666.668.038 0 .07-.014.104-.021L7.8 4H1.332C.596 4 0 4.598 0 5.333v9.338c0 .736.596 1.729 1.332 1.729h13.331c.736 0 1.332-.993 1.332-1.729V5.333c0-.735-.596-1.333-1.332-1.333Zm-2.667 9.337c0 1.393-.596 1.334-1.333 1.334H2.665c-.736 0-1.333.059-1.333-1.334V6.668c0-.737.597-1.335 1.333-1.335h7.998c.737 0 1.333.598 1.333 1.335v6.669Zm1.964-5.961c-.526 0-.16-.427-.16-.953s-.366-.952.16-.952a.952.952 0 0 1 0 1.905Z"/></svg>