<svg xmlns="http://www.w3.org/2000/svg" width="16" height="17"><path fill-rule="evenodd" fill="#FFF" d="M15.999 15.237c0 .647-.608 1.013-2.699.936-1.418.1-3.301.155-5.301.155-2.001 0-3.883-.055-5.301-.155C.607 16.25.1 15.884.1 15.237s.507-.788 2.598-.936a59.574 59.574 0 0 1 2.03-.102c-1.484-1.29-2.458-3.426-2.458-5.845 0 .066.25-.565.558-.565h10.341c.309 0 .559.631.559.565a8.8 8.8 0 0 1-.049.881c.663.445 1.961.103 1.759.723a1.63 1.63 0 0 1-.536 2.23c-.255.157-.541.238-.202.238-.757 0-.885-.015-1.012-.047a1.573 1.573 0 0 1-.75-.43 6.858 6.858 0 0 1-1.672 2.25c1.634.026 1.432.059 2.034.102 2.091.148 2.699.289 2.699.936zm-2.73-3.943a.928.928 0 0 0 .577.427c1.034.059.494.02.707-.112.214-.131.363-.338.422-.349.365-.48.02-.734-.11-.949-.268-.445-.665-.587-1.285-.316-.004.003-.008.002-.012.005a8.394 8.394 0 0 1-.339 1.251c.013.015.029.025.04.043zm-.679-2.375H3.407c.22 3.044 2.195 5.435 4.592 5.435 2.396 0 4.372-2.391 4.591-5.435zM9.775 6.15a.425.425 0 0 1-.396.57l-.032-.001a.884.884 0 0 1-.703-.487c-.198-.413-.073-.957.616-1.662.27-.042.53-.084-.157-.124l.026-.043c.351-.591.29-.805.281-.827.002 0 .02.009.046.016a.416.416 0 0 1-.249-.205c-.054-.1-.065-.215-.033.243.063-.785.305-.919.523-.855.061.019.943.129.504.506.148.408.029.926-.363 1.583-.305.57-.065 1.279-.063 1.286zm-2.353.15c.053-.125.028.037-.067.16-.085.111-.217.177-.255.177l-.137-.002c-.248-.023-.72-.187-.783-.658-.44-.582-.236-1.414.445-2.469.052-.081.101-.159.146-.234l.021-.037c.589-.991.535-1.424.484-1.564-.035-.095-.095-.126-.098-.127-.218-.064-.353-.317-.283-.556a.452.452 0 0 1 .558-.305c.047.013.475.152.664.675.212.582.019 1.379-.571 2.369-.557 1.04-.128 2.441-.124 2.571z"/></svg>